
<svg xmlns="http://www.w3.org/2000/svg" version="1.1" xmlns:xlink="http://www.w3.org/1999/xlink" preserveAspectRatio="none" x="0px" y="0px" width="256px" height="256px" viewBox="0 0 256 256">
<defs>
<g id="Layer5_0_STROKES_1_FILL">
<path fill="#666666" stroke="none" d="
M 96.45 147.2
Q 96.97265625 147.3345703125 97.4 147.05
L 107.8 141.05
Q 108.2677734375 140.8193359375 108.4 140.3 108.534765625 139.8255859375 108.25 139.35 108.01953125 138.9306640625 107.5 138.8 107.02734375 138.6654296875 106.55 138.9
L 96.15 144.9
Q 95.7322265625 145.1806640625 95.6 145.65 95.4654296875 146.17421875 95.7 146.6 95.98046875 147.0693359375 96.45 147.2
M 148.8 141.05
Q 148.9322265625 141.5693359375 149.35 141.8
L 159.75 147.8
Q 160.22734375 148.0845703125 160.7 147.95 161.21953125 147.8193359375 161.45 147.35 161.734765625 146.92421875 161.6 146.4 161.4677734375 145.9306640625 161 145.65
L 150.6 139.65
Q 150.17265625 139.4154296875 149.65 139.55 149.18046875 139.6806640625 148.9 140.1 148.6654296875 140.5755859375 148.8 141.05
M 129.25 114.55
Q 129.2455078125 114.03671875 128.85 113.65 128.51328125 113.3044921875 128 113.3 127.48671875 113.3044921875 127.1 113.65 126.7544921875 114.03671875 126.75 114.55
L 126.75 126.55
Q 126.753125 126.9021484375 126.9 127.15
L 116.95 132.9
Q 116.5322265625 133.1806640625 116.4 133.65 116.2654296875 134.17421875 116.5 134.6 116.78046875 135.0693359375 117.25 135.2 117.77265625 135.3345703125 118.2 135.05
L 128.15 129.35
Q 128.294140625 129.6125 128.55 129.75
L 138.95 135.8
Q 139.4251953125 136.083984375 139.9 135.95 140.4181640625 135.8205078125 140.65 135.35 140.934375 134.9259765625 140.8 134.4 140.66953125 133.9322265625 140.2 133.65
L 129.8 127.6
Q 129.4861328125 127.430078125 129.1 127.45 129.098828125 127.4162109375 129.05 127.35 129.044140625 127.321484375 129 127.25 129.246484375 126.959375 129.25 126.55
L 129.25 114.55
M 66.2 165.05
Q 66.6677734375 164.8193359375 66.8 164.3 66.934765625 163.8255859375 66.65 163.35 66.41953125 162.9306640625 65.9 162.8 65.42734375 162.6654296875 64.95 162.9
L 54.55 168.9
Q 54.1322265625 169.1806640625 54 169.65 53.8654296875 170.17421875 54.1 170.6 54.38046875 171.0693359375 54.85 171.2 55.37265625 171.3345703125 55.8 171.05
L 66.2 165.05
M 75.65 159.2
Q 76.17265625 159.3345703125 76.6 159.05
L 87 153.05
Q 87.4677734375 152.8193359375 87.6 152.3 87.734765625 151.8255859375 87.45 151.35 87.21953125 150.9306640625 86.7 150.8 86.22734375 150.6654296875 85.75 150.9
L 75.35 156.9
Q 74.9322265625 157.1806640625 74.8 157.65 74.6654296875 158.17421875 74.9 158.6 75.18046875 159.0693359375 75.65 159.2
M 34.1 183.25
Q 34.62265625 183.3845703125 35.05 183.1
L 45.45 177.05
Q 45.9177734375 176.8193359375 46.05 176.3 46.184765625 175.8255859375 45.9 175.35 45.66953125 174.9306640625 45.15 174.8 44.67734375 174.6654296875 44.2 174.9
L 33.8 180.95
Q 33.3822265625 181.2306640625 33.25 181.7 33.1154296875 182.22421875 33.35 182.65 33.63046875 183.1193359375 34.1 183.25
M 127.1 89.65
Q 126.7544921875 90.03671875 126.75 90.55
L 126.75 102.55
Q 126.7544921875 103.06328125 127.1 103.4 127.48671875 103.7955078125 128 103.8 128.51328125 103.7955078125 128.85 103.4 129.2455078125 103.06328125 129.25 102.55
L 129.25 90.55
Q 129.2455078125 90.03671875 128.85 89.65 128.51328125 89.3044921875 128 89.3 127.48671875 89.3044921875 127.1 89.65
M 129.25 66.55
Q 129.2455078125 66.03671875 128.85 65.65 128.51328125 65.3044921875 128 65.3 127.48671875 65.3044921875 127.1 65.65 126.7544921875 66.03671875 126.75 66.55
L 126.75 78.55
Q 126.7544921875 79.06328125 127.1 79.4 127.48671875 79.7955078125 128 79.8 128.51328125 79.7955078125 128.85 79.4 129.2455078125 79.06328125 129.25 78.55
L 129.25 66.55
M 129.25 42.55
Q 129.2455078125 42.03671875 128.85 41.65 128.51328125 41.3044921875 128 41.3 127.48671875 41.3044921875 127.1 41.65 126.7544921875 42.03671875 126.75 42.55
L 126.75 54.55
Q 126.7544921875 55.06328125 127.1 55.4 127.48671875 55.7955078125 128 55.8 128.51328125 55.7955078125 128.85 55.4 129.2455078125 55.06328125 129.25 54.55
L 129.25 42.55
M 129.25 18.55
Q 129.2455078125 18.03671875 128.85 17.65 128.51328125 17.3044921875 128 17.3 127.48671875 17.3044921875 127.1 17.65 126.7544921875 18.03671875 126.75 18.55
L 126.75 30.55
Q 126.7544921875 31.06328125 127.1 31.4 127.48671875 31.7955078125 128 31.8 128.51328125 31.7955078125 128.85 31.4 129.2455078125 31.06328125 129.25 30.55
L 129.25 18.55
M 211.2 177.05
Q 211.3322265625 177.5693359375 211.75 177.8
L 222.15 183.8
Q 222.62734375 184.0845703125 223.1 183.95 223.61953125 183.8193359375 223.85 183.35 224.134765625 182.92421875 224 182.4 223.8677734375 181.9306640625 223.4 181.65
L 213 175.65
Q 212.57265625 175.4154296875 212.05 175.55 211.58046875 175.6806640625 211.3 176.1 211.0654296875 176.5755859375 211.2 177.05
M 182.25 159.35
Q 182.534765625 158.92421875 182.4 158.4 182.2677734375 157.9306640625 181.8 157.65
L 171.4 151.65
Q 170.97265625 151.4154296875 170.45 151.55 169.98046875 151.6806640625 169.7 152.1 169.4654296875 152.5755859375 169.6 153.05 169.7322265625 153.5693359375 170.15 153.8
L 180.55 159.8
Q 181.02734375 160.0845703125 181.5 159.95 182.01953125 159.8193359375 182.25 159.35
M 190.4 165.05
Q 190.5322265625 165.5693359375 190.95 165.8
L 201.35 171.8
Q 201.82734375 172.0845703125 202.3 171.95 202.81953125 171.8193359375 203.05 171.35 203.334765625 170.92421875 203.2 170.4 203.0677734375 169.9306640625 202.6 169.65
L 192.2 163.65
Q 191.77265625 163.4154296875 191.25 163.55 190.78046875 163.6806640625 190.5 164.1 190.2654296875 164.5755859375 190.4 165.05 Z"/>
</g>

<g id="Layer4_0_FILL">
<path fill="#1FBD59" stroke="none" d="
M 166.7 182.75
L 166.7 138.2 128 115.85 89.35 138.2 89.35 182.75 128.05 205.1 166.7 182.75 Z"/>
</g>

<g id="Layer3_0_FILL">
<path fill="#FFFFFF" fill-opacity="0.2980392156862745" stroke="none" d="
M 128 115.85
L 89.35 138.2 128.05 160.55 166.7 138.2 128 115.85 Z"/>

<path fill="#FFFFFF" fill-opacity="0.00784313725490196" stroke="none" d="
M 89.35 138.2
L 89.35 182.75 128.05 205.1 128.05 160.55 89.35 138.2 Z"/>

<path fill="#FFFFFF" fill-opacity="0.6" stroke="none" d="
M 166.7 182.75
L 166.7 138.2 128.05 160.55 128.05 205.1 166.7 182.75 Z"/>
</g>

<g id="Layer2_0_FILL">
<path fill="#FFFFFF" fill-opacity="0.00784313725490196" stroke="none" d="
M 128.05 128.05
L 33.25 73.3 33.25 182.75 128.05 237.5 128.05 128.05 Z"/>

<path fill="#FFFFFF" fill-opacity="0.2980392156862745" stroke="none" d="
M 33.25 73.3
L 128.05 128.05 222.8 73.3 128 18.55 33.25 73.3 Z"/>

<path fill="#FFFFFF" fill-opacity="0.6" stroke="none" d="
M 222.8 182.75
L 222.8 73.3 128.05 128.05 128.05 237.5 222.8 182.75 Z"/>
</g>

<path id="Layer3_0_1_STROKES" stroke="#666666" stroke-width="2.5" stroke-linejoin="round" stroke-linecap="round" fill="none" d="
M 166.7 138.2
L 166.7 182.75 128.05 205.1 89.35 182.75 89.35 138.2 128 115.85 166.7 138.2 Z"/>

<path id="Layer1_0_1_STROKES" stroke="#666666" stroke-width="5" stroke-linejoin="round" stroke-linecap="round" fill="none" d="
M 128.05 237.5
L 33.25 182.75 33.25 73.3 128 18.55 222.8 73.3 222.8 182.75 128.05 237.5 Z"/>
</defs>

<g transform="matrix( 1, 0, 0, 1, 0,0) ">
<use xlink:href="#Layer5_0_STROKES_1_FILL"/>
</g>

<g transform="matrix( 1, 0, 0, 1, 0,0) ">
<use xlink:href="#Layer4_0_FILL"/>
</g>

<g transform="matrix( 1, 0, 0, 1, 0,0) ">
<use xlink:href="#Layer3_0_FILL"/>

<use xlink:href="#Layer3_0_1_STROKES"/>
</g>

<g transform="matrix( 1, 0, 0, 1, 0,0) ">
<use xlink:href="#Layer2_0_FILL"/>
</g>

<g transform="matrix( 1, 0, 0, 1, 0,0) ">
<use xlink:href="#Layer1_0_1_STROKES"/>
</g>

<g transform="matrix( 1, 0, 0, 1, 56,33.65) ">
<clipPath id="Mask_Mask_1">
<rect x="23.2" y="-2" width="97.6" height="83.3" fill="#FFFFFF" stroke="none"/>
</clipPath>

<text clip-path="url(#Mask_Mask_1)" writing-mode="lr"><tspan x="25.25" y="51.1" baseline-shift="0%" font-family="Poppins SemiBold" font-weight="bold" font-size="45" fill="#4BCA7A" xml:space="preserve">.hex</tspan></text>
</g>
</svg>
